/* XPM */
static const char *icono_rakarrack_32x32_xpm[] = {
/* columns rows colors chars-per-pixel */
"32 32 131 2",
"   c #040201720172",
".  c #0BEC037B037B",
"X  c #0E4B09190919",
"o  c #127705890589",
"O  c #157A09600960",
"+  c #1C2809570957",
"@  c #1AEC112D112D",
"#  c #1D7C19361936",
"$  c #21DC0C030C03",
"%  c #29D80DCA0DC9",
"&  c #24BB13911391",
"*  c #2D33118D118D",
"=  c #269E1EA51EA5",
"-  c #2AD31ECE1ECE",
";  c #344B110B110B",
":  c #3AA712DD12DD",
">  c #33BA18AB18AB",
",  c #25D220EF20EF",
"<  c #2EA121802180",
"1  c #2DC828882888",
"2  c #2FDD27582758",
"3  c #39F1239E23A0",
"4  c #33642D3B2D3B",
"5  c #3CB42B022B11",
"6  c #351530473047",
"7  c #3A4532313231",
"8  c #44A815DD15DD",
"9  c #493C16BF16BF",
"0  c #441F1AAA1AAA",
"q  c #4B50183B183B",
"w  c #55B71AE51AE5",
"e  c #5BEB1CE51CE5",
"r  c #633F1E591E59",
"t  c #45562ACA2AC9",
"y  c #5497213F213F",
"u  c #59DC20512051",
"i  c #4D933B3E3B45",
"p  c #519C3F133F08",
"a  c #66D820712071",
"s  c #6A5022432243",
"d  c #6CF22A062A08",
"f  c #73802F552F55",
"g  c #6ECE3D543D54",
"h  c #70E939643964",
"j  c #4DE145334533",
"k  c #55A750735073",
"l  c #58F253E053E0",
"z  c #7DE3435B4359",
"x  c #778D4C6E4C6E",
"c  c #650055C955C8",
"v  c #628D5F4B5F4B",
"b  c #6DCD5F825F82",
"n  c #72D7587E588B",
"m  c #6FFF618D5A90",
"M  c #667A61CD61CD",
"N  c #6C48694D694D",
"B  c #79DB6DD26E4D",
"V  c #82D04BBB4BBB",
"C  c #860850EC50EB",
"Z  c #8A57551D5521",
"A  c #8CC05BF95BFC",
"S  c #97386CD56CC8",
"D  c #88F37E73709F",
"F  c #84A07C497C49",
"G  c #ADA9A3D47009",
"H  c #BAEEAE5F7577",
"J  c #CE31BFE57D07",
"K  c #D045C05E77EC",
"L  c #9D0C811D8114",
"P  c #A25180F980EE",
"I  c #AB5C84CC84BF",
"U  c #A8888F359082",
"Y  c #A54D9D919DFD",
"T  c #A9AFA833A1F2",
"R  c #B2EBA67BA67B",
"E  c #BD31A3FCA451",
"W  c #B725A86EA912",
"Q  c #B899AFF7AFF7",
"!  c #B481B1D4A5B5",
"~  c #B601B454B4E0",
"^  c #BA12B53EB5D1",
"/  c #BA42B888B900",
"(  c #C363BBC798A6",
")  c #C518AD20AD47",
"_  c #C59EB246B246",
"`  c #C647BC8EBC8C",
"'  c #CCD3BAA4BAA4",
"]  c #D678C85D81C6",
"[  c #D1BFC5E7900B",
"{  c #D738CB198869",
"}  c #DB83CDB58BA6",
"|  c #E03FD1018692",
" . c #D601CA1B9376",
".. c #E166CFD88046",
"X. c #E60DD4C884CC",
"o. c #ECE4D9CA835C",
"O. c #E22ED2B48AA3",
"+. c #D032C9B9A5AD",
"@. c #D7ABD279ACF7",
"#. c #DCC3D68AACD9",
"$. c #DFA8D92AAFBA",
"%. c #E419DDEFB468",
"&. c #E70DE12AB780",
"*. c #E9DEE25EB71B",
"=. c #E75EE294BAC3",
"-. c #EBF1E4EFBAB5",
";. c #F02EE8D5BE72",
":. c #F290EA4FBDA7",
">. c #C5E2C25BC26D",
",. c #C7ACC809C86B",
"<. c #CB87CABECBD7",
"1. c #D563C669C83A",
"2. c #D261CFD5CFD5",
"3. c #D358D073CF35",
"4. c #D4AFD3DAD495",
"5. c #DDD6D1FDD1FD",
"6. c #D6E4D7CBD871",
"7. c #DCE2DD68DE39",
"8. c #E152E00BE00B",
"9. c #F35AEB53C17E",
"0. c #E017E10CE1C7",
"q. c #E4A0E428E4C1",
"w. c #EA73E45BE453",
"e. c #ECE5EC29E4BD",
"r. c #E5D5E7C5E995",
"t. c #EC55EBE4ECE5",
"y. c #EE49F04BF20D",
"u. c #F436F4E5F5B7",
"i. c #F62CF77DF8A2",
"p. c #FD8CFDA6FDDA",
"a. c None",
/* pixels */
"a.a.a.a.a.a.a.a.a.a.a.a.a.a.a.a.a.a.a.T  .X.o.o.o.a.a.a.a.a.a.a.",
"a.a.a.a.a.a.a.a.a.a.a.a.a.a.a.a.a.a.! [ } X.o.o.a.a.a.a.a.a.a.a.",
"a.a.a.a.a.a.a.a.a.a.a.a.a.a.a.a.a.a.O.} X.X.J a.a.a.a.a.a.a.a.a.",
"a.a.a.a.a.a.a.a.a.a.a.a.a.a.a.a.( O.} | X.X.H K a.a.a.a.a.a.a.a.",
"a.a.a.a.a.a.a.a.a.a.a.a.a.a.a.a.X.} ] | X.o.K a.a.a.a.a.a.a.a.a.",
"a.a.a.a.a.a.a.a.a.a.a.a.a.a.a.a.a.{ G J O.a.a.a.a.a.a.a.a.a.a.a.",
"a.a.a.a.a.a.a.a.a.a.a.a.a.a.a.a.a.=.9.9.9.a.a.a.a.a.a.a.a.a.a.a.",
"a.a.a.a.a.a.a.a.a.a.a.a.a.a.a.a.%.=.-.9.a.a.a.a.a.a.a.a.a.a.a.a.",
"a.a.a.a.a.a.a.a.a.a.a.a.a.a.a.a.&.%.%.:.a.a.a.a.a.a.a.a.a.a.a.a.",
"a.a.a.a.a.a.a.a.a.a.a.a.a.a.a.a.*.;.*.:.a.a.a.a.a.a.a.a.a.a.a.a.",
"a.a.a.a.a.a.a.a.a.a.a.a.a.a.a.a.*.=.-.:.a.a.a.a.a.a.a.a.a.a.a.a.",
"a.a.a.a.a.a.a.a.a.a.a.a.a.a.a.a.*.*.;.:.a.a.a.a.a.a.a.a.a.a.a.a.",
"a.a.a.a.a.a.a.a.a.a.a.a.a.a.a.=.-.&.*.:.a.a.a.a.a.a.a.a.a.a.a.a.",
"a.a.a.a.a.a.a.a.a.a.a.a.a.a.a.%.&.$.*.*.a.a.a.a.a.a.a.a.a.a.a.a.",
"a.a.a.a.a.a.a.a.a.a.a.a.a.a.a.%.%.$.*.;.a.a.a.a.a.a.a.a.a.a.a.a.",
"a.a.a.a.a.a.a.a.a.a.a.a.a.a.a.%.&.*.&.*.a.a.a.a.a.a.a.a.a.a.a.a.",
"a.a.a.a.a.7 7 l a.a.a.a.a.a.a.%.;.:.*.*.a.a.a.a.a.a.a.a.a.a.a.a.",
"a.a.a.a.1 X X 6 a.a.a.a.a.a.=.*.%.*.-.-.a.a.a.a.a.a.a.a.a.a.a.a.",
"a.a.a.j @ X o @ 4 a.a.a.a.a.@.&.$.%.&.a.a.a.a.a.a.a.a.a.a.a.a.a.",
"a.a.a.a.- + $ * * > 3 b B m +.=.#.%.*.a.a.a.a.a.a.a.4 v 1 , a.a.",
"a.a.a.a.7 & * : 8 q y ` p.e.=.-.-.-.-.D a.a.a.a.k N Q u.l # a.a.",
"a.a.a.a.a.< % ; q w r E p.i.t.e.e.e.e.3.>.>.>.4.0.u.i.T 4 a.a.a.",
"a.a.a.a.a.1 $ ; 0 w h 5.p.i.y.y.u.i.u.i.p.p.p.p.p.u.F , a.a.a.a.",
"a.a.a.a.a.& % : 8 h ' i.i.u.y.u.u.u.u.i.p.p.p.p.p.Q & M a.a.a.a.",
"a.a.a.a.& % ; 8 x 8.p.p.u.w.r.r.t.y.u.i.p.p.p.u.p.4.c j a.a.a.a.",
"a.a.@ $ % : 9 u _ p.p.p.6.4.7.0.8.q.,.q.p.p.i.t.q.t.3.p o a.a.a.",
"a.O + % : q e r A ) 5.w.2.<.6.6.6.6.,.8.t.q.t.u.u.u.p.4.p o a.a.",
"X + * : q e e a r s f Z ^ ~ / ~ ^ / >.` S A I E 1.e.i.p.1.3 o a.",
". + % : q e r r r s r d V V V V V C C V s Z ) R P P U W Y 5 .   ",
"a.o + % ; 8 q w e e r r r r r r r r r r a d A L R ` W n % + . a.",
"a.a.a.o + $ * ; : 8 8 8 8 9 9 9 q 9 q q 8 8 8 : 0 t i 5 o . a.a.",
"a.a.a.a.a.a.. o o o + + + + $ + $ $ $ + + + + + O . . a.a.a.a.a."
};
