/* XPM */
static const char *icono_rakarrack_32x32[] = {
/* columns rows colors chars-per-pixel */
"32 32 153 2 ",
"   c #070202",
".  c #0E0406",
"X  c #120505",
"o  c #14060D",
"O  c #150712",
"+  c #14071A",
"@  c #0F052E",
"#  c #130623",
"$  c #13072D",
"%  c #140734",
"&  c #130836",
"*  c #130643",
"=  c #110844",
"-  c #11074B",
";  c #13084A",
":  c #0F075A",
">  c #120653",
",  c #120C52",
"<  c #120A5D",
"1  c #18215E",
"2  c #202158",
"3  c #242C5C",
"4  c #2C365B",
"5  c #0F0664",
"6  c #0F0865",
"7  c #0F056B",
"8  c #130C64",
"9  c #100568",
"0  c #10086D",
"q  c #151064",
"w  c #15126B",
"e  c #18136A",
"r  c #191D6E",
"t  c #0E0675",
"y  c #01037F",
"u  c #0C0B7E",
"i  c #091775",
"p  c #061779",
"a  c #071B7C",
"s  c #131275",
"d  c #12157C",
"f  c #1A1B7B",
"g  c #0E286E",
"h  c #152268",
"j  c #102A6A",
"k  c #0D2676",
"l  c #2B386B",
"z  c #303865",
"x  c #232175",
"c  c #212578",
"v  c #353275",
"b  c #515565",
"n  c #645C72",
"m  c #646177",
"M  c #6A6079",
"N  c #6E6D78",
"B  c #7B7875",
"V  c #77727F",
"C  c #847D71",
"Z  c #92807E",
"A  c #9A917F",
"S  c #000080",
"D  c #090785",
"F  c #0B0985",
"G  c #0D0589",
"H  c #060F8B",
"J  c #0D0B8D",
"K  c #071483",
"L  c #0C1781",
"P  c #0B0594",
"I  c #060990",
"U  c #0D0A94",
"Y  c #09059C",
"T  c #0C089C",
"R  c #051391",
"E  c #232391",
"W  c #2B2B95",
"Q  c #0904A1",
"!  c #0704A8",
"~  c #0905A8",
"^  c #4747A3",
"/  c #8D8384",
"(  c #948C85",
")  c #9D9487",
"_  c #A69B86",
"`  c #AC9F80",
"'  c #AB9F8B",
"]  c #ADAE8E",
"[  c #B5AC8B",
"{  c #B5AC94",
"}  c #BFB692",
"|  c #B7B49C",
" . c #BEB69B",
".. c #BFB99A",
"X. c #C5BB95",
"o. c #C3BD9C",
"O. c #C2BBA1",
"+. c #DBCD8C",
"@. c #DCD089",
"#. c #CFC59C",
"$. c #D2C795",
"%. c #D6CC9F",
"&. c #E6D58A",
"*. c #E2D494",
"=. c #CCC4A3",
"-. c #C9C5AB",
";. c #D4CCA4",
":. c #D5CDAA",
">. c #D5D0A6",
",. c #DBD1A4",
"<. c #DBD3AA",
"1. c #DED9AD",
"2. c #CEC5B6",
"3. c #D7D3B0",
"4. c #DCD5B2",
"5. c #DBD6BE",
"6. c #DFD8BC",
"7. c #E1D5AB",
"8. c #E3DAAF",
"9. c #E1D7B2",
"0. c #E1D9B6",
"q. c #E4DBBE",
"w. c #E9E4BE",
"e. c #AEAED6",
"r. c #B4B4D9",
"t. c #DED5C5",
"y. c #DFDECC",
"u. c #D4D4D0",
"i. c #E2DDC1",
"p. c #E8E2C3",
"a. c #E7E3CF",
"s. c #E8E4CE",
"d. c #EBE6D3",
"f. c #EFEED3",
"g. c #ECE7DB",
"h. c #EFEBDA",
"j. c #F2EDD2",
"k. c #F1EDDC",
"l. c #F2F1DD",
"z. c #CACAE4",
"x. c #D4D4E9",
"c. c #DBDBED",
"v. c #EEECE6",
"b. c #F2EEE2",
"n. c #F3EFE8",
"m. c #F3F1E6",
"M. c #F4F3EB",
"N. c #FAF9EB",
"B. c #E3E3F1",
"V. c #EAEAF4",
"C. c #F6F5F2",
"Z. c #FCFDF7",
"A. c #FEFEFE",
/* pixels */
"A.A.A.A.A.A.A.A.A.A.A.A.A.A.A.A.A.A.A.A.A.A.A.A.A.A.A.A.A.;.A.A.",
"A.A.A.A.A.A.A.A.A.A.A.A.A.A.A.A.A.A.A.A.A.A.A.A.A.A.A.t.:.%.*.1.",
"A.A.A.A.A.A.A.A.A.A.A.A.A.A.A.A.A.A.A.A.A.A.A.A.A.i.;.;.#.%.&.,.",
"A.A.A.A.A.A.A.A.A.A.A.A.A.A.A.A.A.A.A.A.A.A.A.A.A.;.$.+.[ %.b.A.",
"A.A.A.A.A.A.A.A.A.A.A.A.A.A.A.A.A.A.A.A.A.A.A.A.i.C +.} ` N.A.A.",
"A.A.A.A.A.A.A.A.A.A.A.A.A.A.A.A.A.A.A.A.A.A.A.M.i.f ;.X.3.A.A.A.",
"A.A.A.A.A.A.A.A.A.A.A.A.A.A.A.A.A.A.A.A.A.A.m.i.q.k.A.A.A.A.A.A.",
"A.A.A.A.A.A.A.A.A.A.A.A.A.A.A.A.A.A.A.A.A.g.q.<.j.A.A.A.A.A.A.A.",
"A.A.A.A.A.A.A.A.A.A.A.A.A.A.A.A.A.A.A.A.m.w.;.f.A.A.A.A.A.A.A.A.",
"A.A.A.A.A.A.A.A.A.A.A.A.A.A.A.A.A.A.A.m.1.7.p.A.A.A.A.A.A.A.A.A.",
"A.A.A.A.A.A.A.A.A.A.A.A.A.A.A.A.A.A.b.8.0.8.A.A.A.A.A.A.A.A.A.A.",
"A.A.A.A.A.A.A.A.A.A.A.C : v A.A.A.M.0.;.p.A.A.A.A.A.A.A.A.A.A.A.",
"A.A.A.A.A.A.A.A.A.A.b X   x A.A.M.6.;.w.n.A.A.A.A.B.^ V.A.A.A.A.",
"A.A.A.A.A.A.A.A.A.O.& X # u.A.m.,.;.9.C.A.A.A.A.A.c.S B.A.A.A.A.",
"A.A.A.A.A.A.A.A.A.F 0 P P A.h.9.>.<.m.A.A.A.A.A.A.x.S B.Z.A.A.A.",
"A.A.A.A.A.A.A.A.n Y T T D f :.:.1.m.A.A.A.A.A.E S S S S S E A.A.",
"A.A.A.A.A.A.A.y.Q ~ I D s q ;.<.b.A.A.A.A.A.A.z.z.e.y r.z.x.A.A.",
"A.A.A.A.A.A.c P Q U I ) 1.#.;.j.A.A.A.A.A.A.A.A.A.c.y B.A.A.A.A.",
"A.A.A.A.x t G Y U u | h.d.[ z A.A.m.A.A.A.A.A.A.A.c.y B.A.A.A.A.",
"A.A.( - * Y J D l k.v.m.s.) 7 r 3 $ u A.A.A.A.A.A.A.A.A.A.A.A.A.",
"A.] + 7 U G K -.M.k.h.C.Z.M.M 8 w 5 f A.A.A.A.A.A.A.A.A.A.A.A.A.",
"A.# & J H y 1 8.=.O.b.k.A.A.A.f 5 d A.A.A.A.A.A.A.A.A.A.A.A.A.A.",
"A.o Q u y S 1  .>...o.A.A.2.> > m A.A.A.A.A.A.A.A.A.A.Z.A.A.A.A.",
"A.o ~ F y y 3 { ] o.=.M.s.= > A.A.A.A.A.A.A.A.A.A.A.A.A.A.A.A.A.",
"A.$ * U a y i 4  ._ a.6.^ 2 A.A.A.A.A.A.A.A.A.A.A.A.A.A.A.A.A.Z.",
"A./ o Y F p y K k h m.m.q + A.A.A.A.A.A.A.A.A.A.A.A.A.A.A.A.A.A.",
"A.A.< O Q D a S g R B 5.O q A.A.A.A.A.A.A.A.A.A.A.A.A.A.A.A.A.A.",
"A.A.A.- O Y I H j L d 5 O A.A.A.A.A.A.A.A.A.A.A.A.A.A.A.A.A.A.A.",
"A.A.A.A.8 o < U U U U o e A.A.A.A.A.A.A.A.A.A.A.A.A.A.A.A.A.A.A.",
"A.A.A.A.A./ + o # O O 8 A.A.A.A.A.A.A.A.A.A.A.A.A.A.A.A.A.A.A.A.",
"A.A.A.A.A.A.A.N , , -.A.A.A.A.A.A.A.A.A.A.A.A.A.A.A.A.A.A.A.A.A.",
"A.A.A.A.A.A.A.A.A.A.A.A.A.A.A.A.A.A.A.A.A.A.A.A.A.A.A.A.A.A.A.A."
};
